<?xml version="1.0" standalone="no"?>
<!DOCTYPE svg PUBLIC "-//W3C//DTD SVG 20010904//EN"
 "http://www.w3.org/TR/2001/REC-SVG-20010904/DTD/svg10.dtd">
<svg version="1.0" xmlns="http://www.w3.org/2000/svg"
 width="686.000000pt" height="512.000000pt" viewBox="0 0 686.000000 512.000000"
 preserveAspectRatio="xMidYMid meet">

<g transform="translate(0.000000,512.000000) scale(0.100000,-0.100000)"
fill="#000000" stroke="none">
<path d="M555 5104 c-38 -8 -113 -35 -165 -61 -81 -39 -108 -59 -185 -137 -96
-97 -145 -179 -182 -301 -17 -57 -18 -171 -21 -2095 -2 -1372 1 -2058 8 -2105
30 -200 191 -363 390 -394 39 -7 282 -11 607 -11 l543 0 2 1319 3 1320 925
-695 c509 -381 930 -693 936 -691 6 1 426 313 932 692 l921 690 1 1003 c0 551
-2 1002 -5 1002 -3 0 -420 -311 -927 -691 -813 -610 -924 -690 -940 -680 -11
7 -542 404 -1181 883 -845 634 -1181 880 -1232 904 -131 61 -285 78 -430 48z"/>
</g>
</svg>
